<svg role="img" viewBox="0 0 24 24" xmlns="http://www.w3.org/2000/svg" fill="#F05032"><title>Git</title><path d="M23.546 10.93L13.067.452c-.604-.603-1.582-.603-2.188 0L8.708 2.627l2.76 2.76c.645-.215 1.379-.07 1.889.441.516.515.658 1.258.438 1.9l2.658 2.66c.645-.223 1.387-.078 1.9.435.721.72 1.725 1.724 1.19 2.258-.72.72-1.898.72-2.618 0-.517-.516-.661-1.257-.442-1.898l-2.658-2.659c-.31.108-.635.158-.958.158-.767 0-1.513-.277-2.091-.855-.572-.572-.851-1.314-.844-2.072L6.162 5.17l-3.374 3.374c-.602.602-.602 1.583 0 2.187l10.48 10.478c.604.604 1.582.604 2.186 0l10.479-10.479c.604-.601.604-1.586.002-2.184z"/></svg>
