<svg xmlns="http://www.w3.org/2000/svg" viewBox="0 0 24 24" fill="#F7DF1E"><path d="M0 0h24v24H0V0z"/><path d="M11.92 12.3c.09 1.95 1.6 3.1 3.73 3.1 1.5 0 2.52-.5 2.52-1.99v.03c0-1.27-.99-1.85-2.61-2.52l-.84-.34c-2.31-.96-3.86-1.91-3.86-4.5v-.03c0-2.43 1.94-4.22 4.96-4.22 2.37 0 4.19 1.15 4.63 3.51l-1.92.51c-.26-1.27-1.16-2.07-2.66-2.07-1.38 0-2.22.68-2.22 1.91v.03c0 1.21.84 1.76 2.45 2.44l.87.36c2.45 1.01 4.04 2.05 4.04 4.58v.03c0 2.65-2.09 4.39-5.18 4.39-2.88 0-4.82-1.46-5.26-3.96l1.97-.56zm-5.75-.41c.21 1.34 1.25 2.32 2.94 2.32 1.3 0 2.11-.6 2.11-1.57v-7.8h2.23v7.92c0 2.27-1.72 3.52-4.14 3.52-2.7 0-4.66-1.59-4.99-3.95l1.85-.44z" fill="#000"/></svg>
